<?xml version="1.0" encoding="utf-8"?>
<!-- Generator: Adobe Illustrator 17.1.0, SVG Export Plug-In . SVG Version: 6.00 Build 0)  -->
<!DOCTYPE svg PUBLIC "-//W3C//DTD SVG 1.1//EN" "http://www.w3.org/Graphics/SVG/1.1/DTD/svg11.dtd">
<svg version="1.1" id="Layer_1" xmlns="http://www.w3.org/2000/svg" xmlns:xlink="http://www.w3.org/1999/xlink" x="0px" y="0px"
	 viewBox="0 405 800 470" enable-background="new 0 405 800 470" xml:space="preserve">
<rect y="404.7" fill="#C2D0D3" width="800" height="470.6"/>
<path fill="#3D3B3B" d="M522,577.6c-1.5-34-29.6-61.4-63.9-61.4s-62.5,27.4-63.9,61.4c0,0,0,0-0.1,0c-2.3,15.6-4.9,68.8-6.7,119.6
	h137.5C524.6,645.7,524.3,592.8,522,577.6z"/>
<path fill="#DD9B6F" d="M381,702.5c-1.5,0-3.1-0.3-4.5-1c-33.7-15.6-52.7-40.3-49.8-120.1c0.2-6,5.2-10.6,11.2-10.4
	c6,0.2,10.6,5.2,10.4,11.2c-2.9,81.1,18.5,91,37.3,99.7c5.4,2.5,7.8,8.9,5.3,14.3C389,700.1,385.1,702.5,381,702.5z"/>
<path fill="#DD9B6F" d="M525.6,703.2c-4.1,0-8.1-2.4-9.9-6.4c-2.5-5.5-0.1-12,5.3-14.5c19.1-8.8,40.7-18.8,37.8-100.8
	c-0.2-6,4.5-11.1,10.6-11.3c6-0.2,11.1,4.5,11.3,10.6c2.8,80.7-16.3,105.7-50.4,121.5C528.6,702.9,527.1,703.2,525.6,703.2z"/>
<path fill="#75519A" d="M557.8,691.4l-21.2-18.9c-24.4,14.5-142.9,12.7-165.7,0l-16.5,18.9l37.8,22.2c-0.1,1.2,3.4,90.3,3.4,90.3
	c0,20,1.5,31.4,21.6,31.4h76.2c20,0,22.4-10,22.4-30c0,0,5-89.1,4.9-90.3L557.8,691.4z"/>
<linearGradient id="SVGID_1_" gradientUnits="userSpaceOnUse" x1="486.0559" y1="1028.7449" x2="486.0559" y2="943.7449" gradientTransform="matrix(0.9412 0 0 -0.9412 0 1609.4117)">
	<stop  offset="0.1988" style="stop-color:#A37252"/>
	<stop  offset="0.7864" style="stop-color:#DD9B6F"/>
</linearGradient>
<path fill="url(#SVGID_1_)" d="M457.6,641.2h-0.2c-11.4,0-20.6,8.5-20.6,18.8v22.1c0,23,13,39.1,20.9,39.1s20.5-16.1,20.5-39.1V660
	C478.3,649.7,468.9,641.2,457.6,641.2z"/>
<path fill="#DD9B6F" d="M521,593.1c0,0-0.5-0.1-0.7-0.1c0,0,0,0-0.1,0c-12.2,0.5,9-33.7-63.2-33.7c-30.1,0-59.7,11.2-60.1,33.6h-0.2
	c-6.7,0.2-12.1,5.9-12.1,13v1.3c0,7.2,5.6,13,12.5,13h2.9c8.2,24.7,31.5,42.5,58.8,42.5s50.5-17.9,58.8-42.5h1.1
	c6.9,0,12.5-5.8,12.5-13v-1.3C531.5,599.4,526.9,594.1,521,593.1z"/>
<g>
	<circle fill="#563E28" cx="430.3" cy="604.6" r="4.5"/>
	<circle fill="#563E28" cx="485.9" cy="604.6" r="4.5"/>
</g>
<g>
	<circle fill="#C18361" cx="423.2" cy="624.4" r="8.2"/>
	<circle fill="#C18361" cx="492.9" cy="624.4" r="8.2"/>
</g>
<g>
	<path fill="#A3482F" d="M457.8,641.1c-8.3,0-15.4-6.3-16.5-14.6c-0.1-0.5,0.1-0.8,0.4-1.2c0.3-0.3,0.7-0.5,1.1-0.5h29.9
		c0.5,0,0.8,0.2,1.1,0.5c0.3,0.3,0.4,0.8,0.4,1.2C473.2,634.9,466.1,641.1,457.8,641.1z"/>
</g>
<path fill="#FFFFFF" d="M444.7,627.9c1.5,5.9,6.9,10.3,13.1,10.3s11.6-4.3,13.1-10.3H444.7L444.7,627.9z"/>
<linearGradient id="SVGID_2_" gradientUnits="userSpaceOnUse" x1="624.3979" y1="1092.0275" x2="497.7606" y2="1092.0275" gradientTransform="matrix(0.9294 0.1481 0.1481 -0.9294 -225.5992 1504.2756)">
	<stop  offset="0" style="stop-color:#6E6E6E"/>
	<stop  offset="0.8016" style="stop-color:#3D3B3B"/>
</linearGradient>
<path fill="url(#SVGID_2_)" d="M396.9,592.9c9.6,1.6,4.5-9.2,20.2-18.1c37.7-21.3,52.1,27.7,102.4-12.1
	c-56.9,8.2-58.9-38.9-104.5-18C403.6,549.9,393.9,567.1,396.9,592.9z"/>
<path fill="#DE7B30" d="M159.5,526.7l4-1.9c5.9-2.7,13,0.6,14.5,7l1,4.3l4,2c5.8,2.9,7.6,10.5,3.6,15.7l-2.7,3.6l0.9,4.4
	c1.4,6.4-3.5,12.5-10.1,12.6l-4.5,0.1l-2.8,3.5c-4.1,5.1-12,5.1-16.1,0l-2.8-3.5l-4.5-0.1c-6.6-0.1-11.4-6.2-10.1-12.6l0.9-4.4
	l-2.7-3.6c-4-5.2-2.3-12.8,3.6-15.7l4-2l1-4.3c1.6-6.4,8.6-9.8,14.5-7L159.5,526.7z"/>
<g>
	<path fill="none" stroke="#FFFFFF" stroke-width="1.8737" d="M159.4,535.3c-9.6,0.1-17.4,7.9-17.3,17.5c0.1,9.6,7.9,17.4,17.5,17.3
		c9.6-0.1,17.4-7.9,17.3-17.5c-0.1-9.6-7.8-17.3-17.3-17.3H159.4z M159.5,535.3v34.9 M176.9,552.8h-34.8 M146.1,542
		c8.1,5.7,18.9,5.7,27,0 M173,563.5c-8.1-5.7-18.9-5.7-27,0 M158.2,535.7c-9.4,8-10.6,22-2.6,31.5c0.8,0.9,1.7,1.9,2.6,2.6
		 M160.8,569.9c9.4-8,10.6-22,2.6-31.5c-0.8-0.9-1.7-1.9-2.6-2.6"/>
</g>
<g>
	<path fill="#A5C2D3" d="M239.2,536.6l5.3-2.4c7.7-3.6,16.7,0.8,18.7,9l1.4,5.6l5.2,2.6c7.5,3.8,9.8,13.6,4.6,20.2l-3.6,4.6l1.2,5.6
		c1.8,8.3-4.5,16.1-13,16.2l-5.8,0.1l-3.7,4.5c-5.4,6.5-15.3,6.5-20.8,0l-3.7-4.5l-5.8-0.1c-8.5-0.1-14.7-7.9-13-16.2l1.2-5.6
		l-3.6-4.6c-5.2-6.7-2.9-16.5,4.6-20.2l5.2-2.6l1.4-5.6c2-8.2,11-12.6,18.7-9L239.2,536.6z"/>
	<g>
		<path fill="none" stroke="#FFFFFF" stroke-width="2.4143" d="M239.1,547.8c-12.4,0.1-22.4,10.2-22.3,22.6s10.2,22.4,22.6,22.3
			c12.4-0.1,22.4-10.2,22.3-22.6c-0.1-12.3-10.1-22.3-22.3-22.3H239.1z M239.2,547.8v44.9 M261.6,570.3h-44.9 M221.7,556.4
			c10.4,7.4,24.4,7.4,34.8,0 M256.6,584.1c-10.4-7.4-24.4-7.4-34.8,0 M237.5,548.3c-12.1,10.3-13.6,28.4-3.4,40.6
			c1,1.2,2.2,2.4,3.4,3.4 M240.8,592.4c12.1-10.3,13.6-28.4,3.4-40.6c-1-1.2-2.2-2.4-3.4-3.4"/>
	</g>
</g>
<g>
	<path fill="#F7B452" d="M176.3,610.4l6.4-3c9.4-4.3,20.4,0.9,22.9,11l1.7,6.9l6.3,3.2c9.2,4.6,12,16.6,5.6,24.8l-4.3,5.6l1.5,7
		c2.2,10.2-5.5,19.7-15.8,19.9l-7.1,0.1l-4.5,5.5c-6.6,8-18.8,8-25.4,0l-4.5-5.5l-7.1-0.1c-10.4-0.2-18-9.7-15.8-19.9l1.5-7
		l-4.3-5.6c-6.3-8.2-3.6-20.1,5.6-24.8l6.3-3.2l1.7-6.9c2.4-10.1,13.5-15.3,22.9-11L176.3,610.4z"/>
	<g>
		<path fill="none" stroke="#FFFFFF" stroke-width="2.9549" d="M176.1,624c-15.2,0.1-27.4,12.4-27.4,27.7
			c0.1,15.2,12.4,27.4,27.7,27.4s27.4-12.4,27.4-27.7c-0.1-15.1-12.2-27.3-27.4-27.4H176.1z M176.3,624v55 M203.8,651.5h-55.1
			 M154.9,634.6c12.7,9.1,29.8,9.1,42.5,0 M197.6,668.4c-12.7-9.1-29.8-9.1-42.5,0 M174.1,624.8c-14.9,12.5-16.8,34.8-4.1,49.7
			c1.3,1.5,2.6,2.9,4.1,4.1 M178.4,678.6c14.9-12.5,16.8-34.8,4.1-49.7c-1.3-1.5-2.6-2.9-4.1-4.1"/>
	</g>
</g>
<g>
	<rect x="468.7" y="771.3" fill="#C3C4BF" width="178.9" height="12.4"/>
	<polygon fill="#E1E5D6" points="514.6,783.7 652.4,783.7 673.1,681.6 535.4,681.6 	"/>
	<path fill="#F9F8EF" d="M601.4,742.5L601.4,742.5c5.8,0,10.5-4.8,10.5-10.5l0,0c0-5.8-4.8-10.5-10.5-10.5l0,0
		c-5.8,0-10.5,4.8-10.5,10.5l0,0C590.9,737.7,595.7,742.5,601.4,742.5z"/>
</g>
<rect y="783" fill="#31484F" width="800" height="92.3"/>
</svg>
